<svg width="87" height="87" viewBox="0 0 87 87" fill="none" xmlns="http://www.w3.org/2000/svg">
<path fill-rule="evenodd" clip-rule="evenodd" d="M45.8673 26.6324L58.7966 13.7031C60.1299 12.3698 60.7966 11.7031 61.625 11.7031C62.4534 11.7031 63.1201 12.3698 64.4534 13.7031L73.2966 22.5463C74.6299 23.8796 75.2966 24.5463 75.2966 25.3747C75.2966 26.2031 74.6299 26.8698 73.2966 28.2031L60.4439 41.0558C54.4547 37.5128 49.4521 32.5469 45.8673 26.6324ZM44.4132 28.0865L15.3564 57.1433C14.9313 57.5684 14.7188 57.7809 14.5791 58.042C14.4393 58.3031 14.3804 58.5978 14.2625 59.1873L11.0221 75.3893C10.9556 75.7219 10.9223 75.8882 11.0169 75.9828C11.1115 76.0774 11.2778 76.0441 11.6104 75.9776L11.6104 75.9776L27.8124 72.7372C28.4019 72.6193 28.6966 72.5604 28.9577 72.4206C29.2188 72.2809 29.4313 72.0684 29.8563 71.6434L29.8564 71.6433L58.986 42.5137C53.0475 38.9068 48.0591 33.9539 44.4132 28.0865Z" fill="black"/>
</svg>
