<svg width="30" height="30" viewBox="0 0 30 30" fill="none" xmlns="http://www.w3.org/2000/svg">
<path fill-rule="evenodd" clip-rule="evenodd" d="M3.25 1.5C2.69772 1.5 2.25 1.94772 2.25 2.5V6.75027H27.1664V8.75027H2.28003C2.35829 9.19669 2.58675 9.60711 2.93299 9.91007L13.4329 19.0975C14.187 19.7573 15.3129 19.7573 16.0669 19.0975L26.5669 9.91007C27.0009 9.5303 27.2499 8.98165 27.2499 8.40492V2.5C27.2499 1.94772 26.8021 1.5 26.2499 1.5H3.25Z" fill="white"/>
<path fill-rule="evenodd" clip-rule="evenodd" d="M16.75 26.1559L16.75 14H12.75V28.6559L16.75 26.1559Z" fill="white"/>
<path d="M0 0V-1H-1V0H0ZM30 0H31V-1H30V0ZM30 30V31H31V30H30ZM0 30H-1V31H0V30ZM0 1H30V-1H0V1ZM29 0V30H31V0H29ZM30 29H0V31H30V29ZM1 30V0H-1V30H1Z" fill="#29465B"/>
</svg>
