<svg width="59" height="60" viewBox="0 0 59 60" fill="none" xmlns="http://www.w3.org/2000/svg">
<path fill-rule="evenodd" clip-rule="evenodd" d="M51.625 30C51.625 42.4264 41.7193 52.5 29.5 52.5C17.2807 52.5 7.375 42.4264 7.375 30C7.375 17.5736 17.2807 7.5 29.5 7.5C41.7193 7.5 51.625 17.5736 51.625 30ZM29.5 43C29.2239 43 29 42.7761 29 42.5V30.5H17.2083C16.9322 30.5 16.7083 30.2761 16.7083 30C16.7083 29.7239 16.9322 29.5 17.2083 29.5H29V17.5C29 17.2239 29.2239 17 29.5 17C29.7761 17 30 17.2239 30 17.5V29.5H41.7917C42.0678 29.5 42.2917 29.7239 42.2917 30C42.2917 30.2761 42.0678 30.5 41.7917 30.5H30V42.5C30 42.7761 29.7761 43 29.5 43Z" fill="white"/>
</svg>
