<svg width="84" height="84" viewBox="0 0 84 84" fill="none" xmlns="http://www.w3.org/2000/svg">
<path d="M37.5 20.834H45.8333V29.1673H37.5V20.834ZM37.5 37.5007H45.8333V62.5006H37.5V37.5007Z" fill="#323232"/>
<path d="M41.6667 0C18.6667 0 0 18.6667 0 41.6667C0 64.6667 18.6667 83.3333 41.6667 83.3333C64.6667 83.3333 83.3333 64.6667 83.3333 41.6667C83.3333 18.6667 64.6667 0 41.6667 0ZM41.6667 75C23.2917 75 8.33333 60.0417 8.33333 41.6667C8.33333 23.2917 23.2917 8.33333 41.6667 8.33333C60.0417 8.33333 75 23.2917 75 41.6667C75 60.0417 60.0417 75 41.6667 75Z" fill="#323232"/>
</svg>
