<svg width="50" height="50" viewBox="0 0 50 50" fill="none" xmlns="http://www.w3.org/2000/svg">
<path d="M22.9166 35.417H27.0833V22.917H22.9166V35.417ZM25 4.16699C13.5 4.16699 4.16663 13.5003 4.16663 25.0003C4.16663 36.5003 13.5 45.8337 25 45.8337C36.5 45.8337 45.8333 36.5003 45.8333 25.0003C45.8333 13.5003 36.5 4.16699 25 4.16699ZM25 41.667C15.8125 41.667 8.33329 34.1878 8.33329 25.0003C8.33329 15.8128 15.8125 8.33366 25 8.33366C34.1875 8.33366 41.6666 15.8128 41.6666 25.0003C41.6666 34.1878 34.1875 41.667 25 41.667ZM22.9166 18.7503H27.0833V14.5837H22.9166V18.7503Z" fill="#29465B"/>
<path d="M22.9166 14.583H27.0833V18.7497H22.9166V14.583ZM22.9166 22.9163H27.0833V35.4163H22.9166V22.9163Z" fill="#29465B"/>
<path d="M25 4.16699C13.5 4.16699 4.16663 13.5003 4.16663 25.0003C4.16663 36.5003 13.5 45.8337 25 45.8337C36.5 45.8337 45.8333 36.5003 45.8333 25.0003C45.8333 13.5003 36.5 4.16699 25 4.16699ZM25 41.667C15.8125 41.667 8.33329 34.1878 8.33329 25.0003C8.33329 15.8128 15.8125 8.33366 25 8.33366C34.1875 8.33366 41.6666 15.8128 41.6666 25.0003C41.6666 34.1878 34.1875 41.667 25 41.667Z" fill="#29465B"/>
</svg>
