<svg width="32" height="32" viewBox="0 0 32 32" fill="none" xmlns="http://www.w3.org/2000/svg">
<path d="M27 0H5C2.23858 0 0 2.23858 0 5V27C0 29.7614 2.23858 32 5 32H27C29.7614 32 32 29.7614 32 27V5C32 2.23858 29.7614 0 27 0Z" fill="#F00073"/>
<path d="M16.0002 9.19922C18.2002 9.19922 18.5002 9.19922 19.4002 9.19922C20.2002 9.19922 20.6002 9.39922 20.9002 9.49922C21.3002 9.69922 21.6002 9.79922 21.9002 10.0992C22.2002 10.3992 22.4002 10.6992 22.5002 11.0992C22.6002 11.3992 22.7002 11.7992 22.8002 12.5992C22.8002 13.4992 22.8002 13.6992 22.8002 15.9992C22.8002 18.2992 22.8002 18.4992 22.8002 19.3992C22.8002 20.1992 22.6002 20.5992 22.5002 20.8992C22.3002 21.2992 22.2002 21.5992 21.9002 21.8992C21.6002 22.1992 21.3002 22.3992 20.9002 22.4992C20.6002 22.5992 20.2002 22.6992 19.4002 22.7992C18.5002 22.7992 18.3002 22.7992 16.0002 22.7992C13.7002 22.7992 13.5002 22.7992 12.6002 22.7992C11.8002 22.7992 11.4002 22.5992 11.1002 22.4992C10.7002 22.2992 10.4002 22.1992 10.1002 21.8992C9.8002 21.5992 9.6002 21.2992 9.5002 20.8992C9.4002 20.5992 9.3002 20.1992 9.2002 19.3992C9.2002 18.4992 9.2002 18.2992 9.2002 15.9992C9.2002 13.6992 9.2002 13.4992 9.2002 12.5992C9.2002 11.7992 9.4002 11.3992 9.5002 11.0992C9.7002 10.6992 9.8002 10.3992 10.1002 10.0992C10.4002 9.79922 10.7002 9.59922 11.1002 9.49922C11.4002 9.39922 11.8002 9.29922 12.6002 9.19922C13.5002 9.19922 13.8002 9.19922 16.0002 9.19922ZM16.0002 7.69922C13.7002 7.69922 13.5002 7.69922 12.6002 7.69922C11.7002 7.69922 11.1002 7.89922 10.6002 8.09922C10.1002 8.29922 9.6002 8.59922 9.1002 9.09922C8.6002 9.59922 8.4002 9.99922 8.1002 10.5992C7.9002 11.0992 7.8002 11.6992 7.7002 12.5992C7.7002 13.4992 7.7002 13.7992 7.7002 15.9992C7.7002 18.2992 7.7002 18.4992 7.7002 19.3992C7.7002 20.2992 7.9002 20.8992 8.1002 21.3992C8.3002 21.8992 8.6002 22.3992 9.1002 22.8992C9.6002 23.3992 10.0002 23.5992 10.6002 23.8992C11.1002 24.0992 11.7002 24.1992 12.6002 24.2992C13.5002 24.2992 13.8002 24.2992 16.0002 24.2992C18.2002 24.2992 18.5002 24.2992 19.4002 24.2992C20.3002 24.2992 20.9002 24.0992 21.4002 23.8992C21.9002 23.6992 22.4002 23.3992 22.9002 22.8992C23.4002 22.3992 23.6002 21.9992 23.9002 21.3992C24.1002 20.8992 24.2002 20.2992 24.3002 19.3992C24.3002 18.4992 24.3002 18.1992 24.3002 15.9992C24.3002 13.7992 24.3002 13.4992 24.3002 12.5992C24.3002 11.6992 24.1002 11.0992 23.9002 10.5992C23.7002 10.0992 23.4002 9.59922 22.9002 9.09922C22.4002 8.59922 22.0002 8.39922 21.4002 8.09922C20.9002 7.89922 20.3002 7.79922 19.4002 7.69922C18.5002 7.69922 18.3002 7.69922 16.0002 7.69922Z" fill="white"/>
<path d="M16.0002 11.6992C13.6002 11.6992 11.7002 13.5992 11.7002 15.9992C11.7002 18.3992 13.6002 20.2992 16.0002 20.2992C18.4002 20.2992 20.3002 18.3992 20.3002 15.9992C20.3002 13.5992 18.4002 11.6992 16.0002 11.6992ZM16.0002 18.7992C14.5002 18.7992 13.2002 17.5992 13.2002 15.9992C13.2002 14.4992 14.4002 13.1992 16.0002 13.1992C17.5002 13.1992 18.8002 14.3992 18.8002 15.9992C18.8002 17.4992 17.5002 18.7992 16.0002 18.7992Z" fill="white"/>
<path d="M20.4002 12.5992C20.9525 12.5992 21.4002 12.1515 21.4002 11.5992C21.4002 11.0469 20.9525 10.5992 20.4002 10.5992C19.8479 10.5992 19.4002 11.0469 19.4002 11.5992C19.4002 12.1515 19.8479 12.5992 20.4002 12.5992Z" fill="white"/>
</svg>
