<svg width="42" height="39" viewBox="0 0 42 39" fill="none" xmlns="http://www.w3.org/2000/svg">
<path d="M30.2083 0C26.5833 0 23.1042 1.6875 20.8333 4.35417C18.5625 1.6875 15.0833 0 11.4583 0C5.04167 0 0 5.04167 0 11.4583C0 19.3333 7.08333 25.75 17.8125 35.5L20.8333 38.2292L23.8542 35.4792C34.5833 25.75 41.6667 19.3333 41.6667 11.4583C41.6667 5.04167 36.625 0 30.2083 0ZM21.0417 32.3958L20.8333 32.6042L20.625 32.3958C10.7083 23.4167 4.16667 17.4792 4.16667 11.4583C4.16667 7.29167 7.29167 4.16667 11.4583 4.16667C14.6667 4.16667 17.7917 6.22917 18.8958 9.08333H22.7917C23.875 6.22917 27 4.16667 30.2083 4.16667C34.375 4.16667 37.5 7.29167 37.5 11.4583C37.5 17.4792 30.9583 23.4167 21.0417 32.3958Z" fill="#565656"/>
</svg>
