<svg width="42" height="39" viewBox="0 0 42 39" fill="none" xmlns="http://www.w3.org/2000/svg">
<path d="M30.2083 0.229492C26.5833 0.229492 23.1042 1.91699 20.8333 4.58366C18.5625 1.91699 15.0833 0.229492 11.4583 0.229492C5.04167 0.229492 0 5.27116 0 11.6878C0 19.5628 7.08333 25.9795 17.8125 35.7295L20.8333 38.4587L23.8542 35.7087C34.5833 25.9795 41.6667 19.5628 41.6667 11.6878C41.6667 5.27116 36.625 0.229492 30.2083 0.229492ZM21.0417 32.6253L20.8333 32.8337L20.625 32.6253C10.7083 23.6462 4.16667 17.7087 4.16667 11.6878C4.16667 7.52116 7.29167 4.39616 11.4583 4.39616C14.6667 4.39616 17.7917 6.45866 18.8958 9.31283H22.7917C23.875 6.45866 27 4.39616 30.2083 4.39616C34.375 4.39616 37.5 7.52116 37.5 11.6878C37.5 17.7087 30.9583 23.6462 21.0417 32.6253Z" fill="#CA0000"/>
<path d="M21.0417 32.6253L20.8333 32.8337L20.625 32.6253C10.7083 23.6462 4.16667 17.7087 4.16667 11.6878C4.16667 7.52116 7.29167 4.39616 11.4583 4.39616C14.6667 4.39616 17.7917 6.45866 18.8958 9.31283H22.7917C23.875 6.45866 27 4.39616 30.2083 4.39616C34.375 4.39616 37.5 7.52116 37.5 11.6878C37.5 17.7087 30.9583 23.6462 21.0417 32.6253Z" fill="#CA0000"/>
</svg>
