<svg width="58" height="52" viewBox="0 0 58 52" fill="none" xmlns="http://www.w3.org/2000/svg">
<path d="M42.05 0C37.004 0 32.161 2.29537 29 5.92262C25.839 2.29537 20.996 0 15.95 0C7.018 0 0 6.85777 0 15.5858C0 26.2975 9.86 35.0256 24.795 48.2877L29 52L33.205 48.2594C48.14 35.0256 58 26.2975 58 15.5858C58 6.85777 50.982 0 42.05 0ZM29.29 44.0654L29 44.3488L28.71 44.0654C14.906 31.8518 5.8 23.7755 5.8 15.5858C5.8 9.91826 10.15 5.66757 15.95 5.66757C20.416 5.66757 24.766 8.47302 26.303 12.3553H31.726C33.234 8.47302 37.584 5.66757 42.05 5.66757C47.85 5.66757 52.2 9.91826 52.2 15.5858C52.2 23.7755 43.094 31.8518 29.29 44.0654Z" fill="#323232"/>
</svg>
