<svg width="20" height="20" viewBox="0 0 20 20" fill="none" xmlns="http://www.w3.org/2000/svg">
<path d="M8.3004 3.69595C8.2205 5.80375 7.97073 7.03852 6.74483 8.86128C6.53622 8.65857 6.25442 8.53094 5.94608 8.53094H2.48651C1.85761 8.53094 1.33325 9.05526 1.33325 9.6842V16.6033C1.33325 17.2322 1.85758 17.7566 2.48651 17.7566H5.94608C6.26958 17.7566 6.56386 17.6166 6.77486 17.3962C6.92515 17.5154 7.06525 17.6248 7.22533 17.7205C7.56546 17.9241 7.96203 18.0465 8.46868 18.0989C9.48184 18.2038 11.0778 18.1254 14.7872 18.141C14.9197 18.1408 15.0514 18.0932 15.1536 18.0088C15.8875 17.41 16.248 16.7942 16.4149 16.1408C16.479 16.1059 16.5364 16.0588 16.583 16.0027C17.1395 15.3072 17.364 14.5043 17.2677 13.7804C17.2985 13.7554 17.3268 13.7272 17.3518 13.6964C17.9972 12.8897 18.2017 11.9353 17.9703 11.1316C18.3488 10.6404 18.5124 10.0637 18.4508 9.52792C18.3753 8.87098 17.955 8.27908 17.3217 8.00238C17.25 7.97114 17.1718 7.95465 17.0935 7.95439H12.3607C12.6139 6.06312 12.4206 4.32939 11.754 3.1556C11.3763 2.4905 10.7998 2.10064 10.2224 2.01443C9.18527 1.88706 8.3998 2.61573 8.30044 3.69616L8.3004 3.69595ZM10.7509 3.72598C11.276 4.65076 11.5216 6.46978 11.1473 8.42283C11.084 8.75438 11.3744 9.10644 11.7118 9.1075H16.9252C17.1407 9.22789 17.2751 9.41237 17.3035 9.66014C17.3302 9.89234 17.2299 10.1723 16.9972 10.453H14.9791C14.6745 10.453 14.3943 10.7249 14.3943 11.0297C14.3943 11.3343 14.6745 11.6106 14.9791 11.6063H16.889C16.9328 11.9326 16.8523 12.343 16.5887 12.7595H14.9791C14.6745 12.7595 14.3943 13.0314 14.3943 13.3362C14.3943 13.6408 14.6745 13.9171 14.9791 13.9128H16.1203C16.1641 14.2391 16.0835 14.6495 15.82 15.0661H14.9791C14.6745 15.0661 14.3943 15.338 14.3943 15.6427C14.3943 15.9473 14.6745 16.2236 14.9791 16.2193H15.1772C15.0591 16.4736 14.8717 16.6989 14.5405 16.988C11.0412 16.9773 9.37282 17.0339 8.5824 16.952C8.17511 16.9098 8.01449 16.85 7.81368 16.7297C7.6465 16.6297 7.41562 16.4384 7.09898 16.1831V10.3392C8.90272 7.9279 9.35761 6.24129 9.45347 3.75027C9.63366 2.75736 10.4942 3.16921 10.7508 3.72627L10.7509 3.72598ZM2.48634 9.68413H5.9459C5.9329 11.9749 5.9459 14.2945 5.9459 16.6033H2.48634V9.68413Z" fill="#929292"/>
</svg>
