<svg width="20" height="20" viewBox="0 0 20 20" fill="none" xmlns="http://www.w3.org/2000/svg">
<path d="M8.96715 3.69595C8.88725 5.80375 8.63748 7.03852 7.41158 8.86128C7.20297 8.65857 6.92117 8.53094 6.61282 8.53094H3.15326C2.52436 8.53094 2 9.05526 2 9.6842V16.6033C2 17.2322 2.52432 17.7566 3.15326 17.7566H6.61282C6.93633 17.7566 7.2306 17.6166 7.44161 17.3962C7.5919 17.5154 7.732 17.6248 7.89207 17.7205C8.2322 17.9241 8.62878 18.0465 9.13542 18.0989C10.1486 18.2038 11.7445 18.1254 15.4539 18.141C15.5864 18.1408 15.7182 18.0932 15.8204 18.0088C16.5542 17.41 16.9147 16.7942 17.0817 16.1408C17.1457 16.1059 17.2031 16.0588 17.2498 16.0027C17.8063 15.3072 18.0307 14.5043 17.9344 13.7804C17.9653 13.7554 17.9936 13.7272 18.0185 13.6964C18.6639 12.8897 18.8685 11.9353 18.6371 11.1316C19.0155 10.6404 19.1791 10.0637 19.1176 9.52792C19.0421 8.87098 18.6218 8.27908 17.9885 8.00238C17.9167 7.97114 17.8386 7.95465 17.7603 7.95439H13.0274C13.2807 6.06312 13.0873 4.32939 12.4207 3.1556C12.0431 2.4905 11.4666 2.10064 10.8892 2.01443C9.85202 1.88706 9.06651 2.61552 8.96715 3.69595ZM11.4176 3.72598C11.9428 4.65076 12.1884 6.46978 11.814 8.42283C11.7508 8.75438 12.0412 9.10644 12.3786 9.1075H17.592C17.8074 9.22789 17.9419 9.41237 17.9703 9.66014C17.997 9.89234 17.8967 10.1723 17.664 10.453H15.6458C15.3412 10.453 15.061 10.7249 15.061 11.0297C15.061 11.3343 15.3412 11.6106 15.6458 11.6063H17.5557C17.5996 11.9326 17.519 12.343 17.2554 12.7595H15.6458C15.3412 12.7595 15.061 13.0314 15.061 13.3362C15.061 13.6408 15.3412 13.9171 15.6458 13.9128H16.787C16.8308 14.2391 16.7503 14.6495 16.4867 15.0661H15.6458C15.3412 15.0661 15.061 15.338 15.061 15.6427C15.061 15.9473 15.3412 16.2236 15.6458 16.2193H15.844C15.7259 16.4736 15.5384 16.6989 15.2073 16.988C11.7079 16.9773 10.0396 17.0339 9.24915 16.952C8.84186 16.9097 8.68124 16.85 8.48043 16.7297C8.31325 16.6297 8.08237 16.4384 7.76572 16.1831V10.3392C9.56947 7.9279 10.0244 6.24129 10.1202 3.75027C10.3004 2.75736 11.161 3.16892 11.4176 3.72598ZM3.15309 9.68413H6.61265C6.59965 11.9749 6.61265 14.2945 6.61265 16.6033H3.15309V9.68413Z" fill="#F1BC00"/>
<path d="M3.15309 9.68413H6.61265C6.59965 11.9749 6.61265 14.2945 6.61265 16.6033H3.15309V9.68413Z" fill="#FFCF26"/>
<path d="M11.4176 3.72598C11.9428 4.65076 12.1884 6.46978 11.814 8.42283C11.7508 8.75438 12.0412 9.10644 12.3786 9.1075H17.592C17.8074 9.22789 17.9419 9.41237 17.9703 9.66014C17.997 9.89234 17.8967 10.1723 17.664 10.453H15.6458C15.3412 10.453 15.061 10.7249 15.061 11.0297C15.061 11.3343 15.3412 11.6106 15.6458 11.6063H17.5557C17.5996 11.9326 17.519 12.343 17.2554 12.7595H15.6458C15.3412 12.7595 15.061 13.0314 15.061 13.3362C15.061 13.6408 15.3412 13.9171 15.6458 13.9128H16.787C16.8308 14.2391 16.7503 14.6495 16.4867 15.0661H15.6458C15.3412 15.0661 15.061 15.338 15.061 15.6427C15.061 15.9473 15.3412 16.2236 15.6458 16.2193H15.844C15.7259 16.4736 15.5384 16.6989 15.2073 16.988C11.7079 16.9773 10.0396 17.0339 9.24915 16.952C8.84186 16.9097 8.68124 16.85 8.48043 16.7297C8.31325 16.6297 8.08237 16.4384 7.76572 16.1831V10.3392C9.56947 7.9279 10.0244 6.24129 10.1202 3.75027C10.3004 2.75736 11.161 3.16892 11.4176 3.72598Z" fill="#FFCF26"/>
</svg>
