<svg width="12" height="13" viewBox="0 0 12 13" fill="none" xmlns="http://www.w3.org/2000/svg">
<path d="M6.10421 6.11947C5.40184 6.11947 4.82718 5.56872 4.82718 4.89558C4.82718 4.22244 5.40184 3.67168 6.10421 3.67168C6.80657 3.67168 7.38123 4.22244 7.38123 4.89558C7.38123 5.56872 6.80657 6.11947 6.10421 6.11947ZM9.93529 5.01797C9.93529 2.7966 8.24323 1.22389 6.10421 1.22389C3.96518 1.22389 2.27312 2.7966 2.27312 5.01797C2.27312 6.44992 3.51822 8.34696 6.10421 10.6112C8.69019 8.34696 9.93529 6.44992 9.93529 5.01797ZM6.10421 0C8.78596 0 11.2123 1.97047 11.2123 5.01797C11.2123 7.04963 9.50749 9.45459 6.10421 12.2389C2.70093 9.45459 0.996094 7.04963 0.996094 5.01797C0.996094 1.97047 3.42245 0 6.10421 0Z" fill="#323232"/>
</svg>
