<svg width="14" height="14" viewBox="0 0 14 14" fill="none" xmlns="http://www.w3.org/2000/svg">
<path d="M11.2119 1.00001H2.78806C2.31403 1.00063 1.85957 1.18917 1.52436 1.52437C1.18915 1.85957 1.00061 2.31405 1 2.78807V8.58701C1.00062 9.06103 1.18917 9.5155 1.52436 9.85061C1.85957 10.1858 2.31403 10.3745 2.78806 10.375H3.24999V12.625C3.24999 12.7183 3.28485 12.8083 3.34764 12.8773C3.41043 12.9463 3.4967 12.9895 3.58955 12.9983C3.68248 13.0071 3.77533 12.981 3.85003 12.925L7.25015 10.375H11.2119C11.686 10.3744 12.1404 10.1858 12.4756 9.85061C12.8108 9.51549 12.9994 9.06102 13 8.587V2.78806C12.9994 2.31404 12.8108 1.85957 12.4756 1.52436C12.1404 1.18915 11.6859 1.00062 11.2119 1.00001ZM12.2499 8.58689C12.2496 8.86206 12.1402 9.12594 11.9455 9.32054C11.7509 9.51513 11.4871 9.6246 11.2119 9.62487H7.12438C7.04327 9.62487 6.96438 9.6512 6.89946 9.69993L4 11.8749V9.9999C4 9.90038 3.96051 9.80504 3.89017 9.7347C3.81991 9.66444 3.72448 9.62486 3.62504 9.62486H2.78805C2.51279 9.6246 2.24901 9.51512 2.05441 9.32053C1.85973 9.12593 1.75035 8.86206 1.74999 8.58688V2.78795C1.75034 2.51269 1.85973 2.2489 2.05441 2.0543C2.249 1.85962 2.51279 1.75024 2.78805 1.74988H11.2118C11.4871 1.75023 11.7509 1.85962 11.9455 2.0543C12.1402 2.2489 12.2496 2.51269 12.2499 2.78795L12.2499 8.58689Z" fill="#29465B" stroke="#29465B"/>
</svg>
