<svg width="54" height="54" viewBox="0 0 54 54" fill="none" xmlns="http://www.w3.org/2000/svg">
<path d="M45.469 3.0357e-05H7.96145C5.85083 0.00280234 3.82729 0.842311 2.33476 2.33479C0.84222 3.82727 0.00273711 5.85087 0 7.96148V33.7816C0.00277199 35.8922 0.84228 37.9158 2.33476 39.4079C3.82729 40.9004 5.85083 41.7403 7.96145 41.7426H10.0182V51.7609C10.0182 52.1763 10.1735 52.577 10.453 52.8843C10.7326 53.1916 11.1167 53.3841 11.5302 53.4233C11.944 53.4625 12.3574 53.346 12.69 53.0966L27.8293 41.7426H45.4694C47.5801 41.7402 49.6036 40.9003 51.0961 39.4079C52.5887 37.9157 53.4282 35.8922 53.4309 33.7816V7.96145C53.4281 5.85084 52.5886 3.8273 51.0961 2.33476C49.6037 0.84222 47.5796 0.00276747 45.469 3.0357e-05ZM50.0911 33.7811C50.0895 35.0063 49.6024 36.1812 48.7356 37.0477C47.8692 37.9141 46.6946 38.4015 45.469 38.4028H27.2693C26.9081 38.4028 26.5569 38.52 26.2678 38.737L13.3577 48.421V40.0726C13.3577 39.6295 13.1819 39.205 12.8687 38.8918C12.5558 38.5789 12.1309 38.4027 11.6882 38.4027H7.96144C6.73582 38.4015 5.5613 37.9141 4.69485 37.0477C3.82802 36.1812 3.34099 35.0063 3.33937 33.7811V7.96095C3.34095 6.73533 3.82803 5.5608 4.69485 4.69435C5.56129 3.82752 6.73582 3.3405 7.96144 3.33887H45.469C46.6946 3.34046 47.8692 3.82753 48.7356 4.69435C49.6024 5.56079 50.0895 6.73533 50.0911 7.96095L50.0911 33.7811Z" fill="#565656"/>
<path d="M50.0911 33.7811C50.0895 35.0063 49.6024 36.1812 48.7356 37.0477C47.8692 37.9141 46.6946 38.4015 45.469 38.4028H27.2693C26.9081 38.4028 26.5569 38.52 26.2678 38.737L13.3577 48.421V40.0726C13.3577 39.6295 13.1819 39.205 12.8687 38.8918C12.5558 38.5789 12.1309 38.4027 11.6882 38.4027H7.96144C6.73582 38.4015 5.5613 37.9141 4.69485 37.0477C3.82802 36.1812 3.34099 35.0063 3.33937 33.7811V7.96095C3.34095 6.73533 3.82803 5.5608 4.69485 4.69435C5.56129 3.82752 6.73582 3.3405 7.96144 3.33887H45.469C46.6946 3.34046 47.8692 3.82753 48.7356 4.69435C49.6024 5.56079 50.0895 6.73533 50.0911 7.96095L50.0911 33.7811Z" fill="#565656"/>
</svg>
