<svg width="12" height="12" viewBox="0 0 12 12" fill="none" xmlns="http://www.w3.org/2000/svg">
<path d="M10.2119 6.81788e-06H1.78806C1.31404 0.000629378 0.859572 0.189175 0.524363 0.52437C0.189154 0.859565 0.000614728 1.31405 0 1.78807V7.58701C0.00062256 8.06103 0.189168 8.5155 0.524363 8.85061C0.859572 9.18582 1.31404 9.37445 1.78806 9.37498H2.25V11.625C2.25 11.7183 2.28486 11.8083 2.34765 11.8773C2.41044 11.9463 2.49671 11.9895 2.58956 11.9983C2.68249 12.0071 2.77534 11.981 2.85004 11.925L6.25017 9.37497H10.212C10.686 9.37444 11.1405 9.1858 11.4757 8.85061C11.8109 8.51549 11.9994 8.06102 12 7.587V1.78806C11.9994 1.31404 11.8109 0.859572 11.4757 0.524363C11.1405 0.189154 10.6859 0.000621546 10.2119 6.81788e-06ZM11.25 7.58689C11.2496 7.86206 11.1402 8.12594 10.9455 8.32054C10.7509 8.51513 10.4871 8.6246 10.2119 8.62487H6.1244C6.04329 8.62487 5.9644 8.6512 5.89948 8.69993L3.00001 10.8749V8.9999C3.00001 8.90038 2.96052 8.80504 2.89018 8.7347C2.81992 8.66444 2.72449 8.62486 2.62505 8.62486H1.78806C1.5128 8.6246 1.24901 8.51512 1.05442 8.32053C0.859734 8.12593 0.750353 7.86206 0.749989 7.58688V1.78795C0.750345 1.51269 0.859736 1.2489 1.05442 1.0543C1.24901 0.859622 1.5128 0.750242 1.78806 0.749877H10.2119C10.4871 0.750233 10.7509 0.859625 10.9455 1.0543C11.1402 1.2489 11.2496 1.51269 11.25 1.78795L11.25 7.58689Z" fill="white"/>
<path d="M11.25 7.58689C11.2496 7.86206 11.1402 8.12594 10.9455 8.32054C10.7509 8.51513 10.4871 8.6246 10.2119 8.62487H6.1244C6.04329 8.62487 5.9644 8.6512 5.89948 8.69993L3.00001 10.8749V8.9999C3.00001 8.90038 2.96052 8.80504 2.89018 8.7347C2.81992 8.66444 2.72449 8.62486 2.62505 8.62486H1.78806C1.5128 8.6246 1.24901 8.51512 1.05442 8.32053C0.859734 8.12593 0.750353 7.86206 0.749989 7.58688V1.78795C0.750345 1.51269 0.859736 1.2489 1.05442 1.0543C1.24901 0.859622 1.5128 0.750242 1.78806 0.749877H10.2119C10.4871 0.750233 10.7509 0.859625 10.9455 1.0543C11.1402 1.2489 11.2496 1.51269 11.25 1.78795L11.25 7.58689Z" fill="white"/>
</svg>
