<svg width="53" height="53" viewBox="0 0 53 53" fill="none" xmlns="http://www.w3.org/2000/svg">
<path d="M44.4004 1H8.59924C6.58464 1.00265 4.65317 1.80396 3.22853 3.22854C1.8039 4.65311 1.00261 6.58464 1 8.59924V33.2446C1.00265 35.2592 1.80396 37.1907 3.22853 38.615C4.65317 40.0396 6.58464 40.8413 8.59924 40.8435H10.5624V50.4059C10.5624 50.8024 10.7106 51.185 10.9775 51.4783C11.2443 51.7716 11.611 51.9553 12.0056 51.9927C12.4006 52.0301 12.7952 51.919 13.1126 51.6808L27.5631 40.8435H44.4008C46.4153 40.8412 48.3468 40.0395 49.7715 38.6149C51.1961 37.1907 51.9974 35.2592 52 33.2446V8.59921C51.9973 6.58462 51.196 4.65314 49.7715 3.22851C48.3469 1.80387 46.415 1.00261 44.4004 1ZM48.8121 33.2442C48.8106 34.4136 48.3457 35.5351 47.5183 36.3621C46.6913 37.1891 45.5702 37.6544 44.4004 37.6555H27.0286C26.6839 37.6555 26.3486 37.7674 26.0727 37.9746L13.75 47.218V39.2494C13.75 38.8265 13.5822 38.4213 13.2832 38.1223C12.9846 37.8237 12.579 37.6555 12.1564 37.6555H8.59923C7.42937 37.6544 6.30828 37.1891 5.48125 36.3621C4.65386 35.5351 4.18899 34.4136 4.18744 33.2441V8.59873C4.18895 7.42887 4.65387 6.30778 5.48125 5.48075C6.30827 4.65335 7.42937 4.18849 8.59923 4.18694H44.4003C45.5702 4.18845 46.6913 4.65336 47.5183 5.48075C48.3457 6.30777 48.8106 7.42887 48.8121 8.59873L48.8121 33.2442Z" fill="#29465B" stroke="#29465B" stroke-width="2"/>
</svg>
