<svg width="38" height="55" viewBox="0 0 38 55" fill="none" xmlns="http://www.w3.org/2000/svg">
<path d="M3.11001 49.8574L18.5519 29.2524C18.7237 29.0196 19.0669 28.971 19.318 29.1298L19.4502 29.2524L34.9051 49.8574V3.99616C34.9051 3.69 34.8125 3.42057 34.6674 3.23696L34.654 3.21262C34.5614 3.09008 34.4425 3.02901 34.337 3.02901H3.66561C3.54675 3.02901 3.42789 3.10246 3.33528 3.23696L3.30902 3.26129C3.1768 3.4449 3.09755 3.70195 3.09755 3.99573L3.11091 49.857L3.11001 49.8574ZM19 30.4406L3.00387 51.7791C2.91127 51.9136 2.73988 51.9994 2.55468 51.9994C2.25108 51.9994 2 51.7667 2 51.4853V3.99534C2 3.49319 2.15849 3.04058 2.39621 2.69771L2.42247 2.66099C2.72607 2.25705 3.16235 2 3.66402 2H34.3354C34.8242 2 35.2467 2.23271 35.5508 2.61231L35.5771 2.66142C35.8411 3.00429 36 3.48167 36 3.99577V51.4857C36 51.645 35.9208 51.8039 35.7623 51.9021C35.5112 52.0733 35.168 52.0122 34.9961 51.7795L19 30.441L19 30.4406Z" fill="#29465B" stroke="#29465B" stroke-width="3"/>
</svg>
