<svg width="36" height="52" viewBox="0 0 36 52" fill="none" xmlns="http://www.w3.org/2000/svg">
<path d="M2.11001 48.8574L17.5519 28.2524C17.7237 28.0196 18.0669 27.971 18.318 28.1298L18.4502 28.2524L33.9051 48.8574V2.99616C33.9051 2.69 33.8125 2.42057 33.6674 2.23696L33.654 2.21262C33.5614 2.09008 33.4425 2.02901 33.337 2.02901H2.66561C2.54675 2.02901 2.42789 2.10246 2.33528 2.23696L2.30902 2.26129C2.1768 2.4449 2.09755 2.70195 2.09755 2.99573L2.11001 48.8574ZM18 29.4406L2.00387 50.7791C1.91127 50.9136 1.73988 50.9994 1.55468 50.9994C1.25108 50.9994 1 50.7667 1 50.4853V2.99534C1 2.49319 1.15849 2.04058 1.39621 1.69771L1.42247 1.66099C1.72607 1.25705 2.16235 1 2.66402 1H33.3354C33.8242 1 34.2467 1.23271 34.5508 1.61231L34.5771 1.66142C34.8411 2.00429 35 2.48167 35 2.99577V50.4857C35 50.645 34.9208 50.8039 34.7623 50.9021C34.5112 51.0733 34.168 51.0122 33.9961 50.7795L18 29.4406Z" fill="black"/>
<path d="M2.11001 48.8574L17.5519 28.2524C17.7237 28.0196 18.0669 27.971 18.318 28.1298L18.4502 28.2524L33.9051 48.8574V2.99616C33.9051 2.69 33.8125 2.42057 33.6674 2.23696L33.654 2.21262C33.5614 2.09008 33.4425 2.02901 33.337 2.02901H2.66561C2.54675 2.02901 2.42789 2.10246 2.33528 2.23696L2.30902 2.26129C2.1768 2.4449 2.09755 2.70195 2.09755 2.99573L2.11001 48.8574Z" fill="#29465B"/>
<path d="M2.11001 48.8574L1.11001 48.8577L1.11083 51.8582L2.91024 49.4571L2.11001 48.8574ZM17.5519 28.2524L18.3521 28.8521L18.3563 28.8464L17.5519 28.2524ZM18.318 28.1298L18.9978 27.3964L18.9304 27.3339L18.8526 27.2847L18.318 28.1298ZM18.4502 28.2524L19.2502 27.6523L19.1961 27.5802L19.13 27.5189L18.4502 28.2524ZM33.9051 48.8574L33.1051 49.4574L34.9051 51.8572V48.8574H33.9051ZM33.6674 2.23696L32.7907 2.71812L32.831 2.79143L32.8828 2.85704L33.6674 2.23696ZM33.654 2.21262L34.5306 1.73146L34.4957 1.66774L34.4518 1.60975L33.654 2.21262ZM2.33528 2.23696L3.01505 2.97038L3.09619 2.89518L3.15893 2.80406L2.33528 2.23696ZM2.30902 2.26129L1.62925 1.52787L1.55594 1.59581L1.49754 1.67692L2.30902 2.26129ZM2.09755 2.99573H1.09755L1.09755 2.996L2.09755 2.99573ZM18 29.4406L18.8002 28.8408L18.0001 27.7734L17.1999 28.8407L18 29.4406ZM2.00387 50.7791L1.20373 50.1793L1.19163 50.1954L1.18019 50.212L2.00387 50.7791ZM1.39621 1.69771L0.582787 1.11603L0.578555 1.12195L0.574409 1.12793L1.39621 1.69771ZM1.42247 1.66099L0.623083 1.06017L0.615952 1.06966L0.609047 1.07931L1.42247 1.66099ZM34.5508 1.61231L35.4326 1.14073L35.3891 1.05923L35.3313 0.9871L34.5508 1.61231ZM34.5771 1.66142L33.6953 2.133L33.7343 2.20594L33.7847 2.27147L34.5771 1.66142ZM34.7623 50.9021L34.2355 50.052L34.2169 50.0636L34.1989 50.0759L34.7623 50.9021ZM33.9961 50.7795L34.8006 50.1855L34.7963 50.1797L33.9961 50.7795ZM2.91024 49.4571L18.3521 28.8521L16.7517 27.6527L1.30979 48.2577L2.91024 49.4571ZM18.3563 28.8464C18.2686 28.9652 18.1504 29.0183 18.0578 29.0326C17.9671 29.0466 17.87 29.0297 17.7834 28.9749L18.8526 27.2847C18.2088 26.8774 17.265 26.9574 16.7474 27.6583L18.3563 28.8464ZM17.6383 28.8632L17.7705 28.9858L19.13 27.5189L18.9978 27.3964L17.6383 28.8632ZM17.6503 28.8524L33.1051 49.4574L34.7051 48.2574L19.2502 27.6523L17.6503 28.8524ZM34.9051 48.8574V2.99616H32.9051V48.8574H34.9051ZM34.9051 2.99616C34.9051 2.49953 34.7566 2.00239 34.4519 1.61689L32.8828 2.85704C32.8732 2.84491 32.8797 2.84889 32.8885 2.87636C32.897 2.90263 32.9051 2.94313 32.9051 2.99616H34.9051ZM34.544 1.7558L34.5306 1.73146L32.7774 2.69378L32.7907 2.71812L34.544 1.7558ZM34.4518 1.60975C34.2171 1.29906 33.8263 1.02901 33.337 1.02901V3.02901C33.0588 3.02901 32.9057 2.88109 32.8562 2.8155L34.4518 1.60975ZM33.337 1.02901H2.66561V3.02901H33.337V1.02901ZM2.66561 1.02901C2.11196 1.02901 1.72157 1.36496 1.51164 1.66985L3.15893 2.80406C3.13421 2.83996 2.98154 3.02901 2.66561 3.02901V1.02901ZM1.65551 1.50353L1.62925 1.52787L2.98879 2.99472L3.01505 2.97038L1.65551 1.50353ZM1.49754 1.67692C1.22169 2.05997 1.09755 2.53136 1.09755 2.99573H3.09755C3.09755 2.93801 3.10541 2.89547 3.1133 2.86856C3.1214 2.84096 3.12768 2.83571 3.12051 2.84567L1.49754 1.67692ZM1.09755 2.996L1.11001 48.8577L3.11001 48.8571L3.09755 2.99546L1.09755 2.996ZM17.1999 28.8407L1.20373 50.1793L2.80401 51.3789L18.8002 30.0404L17.1999 28.8407ZM1.18019 50.212C1.2404 50.1246 1.31205 50.0722 1.37158 50.0429C1.43194 50.0131 1.49422 49.9994 1.55468 49.9994V51.9994C2.0294 51.9994 2.52698 51.7827 2.82754 51.3461L1.18019 50.212ZM1.55468 49.9994C1.73045 49.9994 2 50.1442 2 50.4853H0C0 51.3892 0.771711 51.9994 1.55468 51.9994V49.9994ZM2 50.4853V2.99534H0V50.4853H2ZM2 2.99534C2 2.70209 2.09328 2.44738 2.218 2.26749L0.574409 1.12793C0.223694 1.63377 0 2.28428 0 2.99534H2ZM2.20962 2.27939L2.23588 2.24267L0.609047 1.07931L0.582787 1.11603L2.20962 2.27939ZM2.22185 2.26181C2.37141 2.06282 2.53056 2 2.66402 2V0C1.79414 0 1.08072 0.451285 0.623083 1.06017L2.22185 2.26181ZM2.66402 2H33.3354V0H2.66402V2ZM33.3354 2C33.4796 2 33.6288 2.06081 33.7704 2.23753L35.3313 0.9871C34.8646 0.40461 34.1689 0 33.3354 0V2ZM33.669 2.0839L33.6953 2.133L35.4589 1.18983L35.4326 1.14073L33.669 2.0839ZM33.7847 2.27147C33.8996 2.42065 34 2.67737 34 2.99577H36C36 2.28598 35.7826 1.58793 35.3694 1.05137L33.7847 2.27147ZM34 2.99577V50.4857H36V2.99577H34ZM34 50.4857C34 50.3055 34.0942 50.1396 34.2355 50.052L35.289 51.7521C35.7473 51.4681 36 50.9845 36 50.4857H34ZM34.1989 50.0759C34.3857 49.9485 34.6485 49.9796 34.8006 50.1855L33.1917 51.3735C33.6874 52.0449 34.6367 52.1981 35.3257 51.7282L34.1989 50.0759ZM34.7963 50.1797L18.8002 28.8408L17.1999 30.0404L33.196 51.3793L34.7963 50.1797Z" fill="#29465B"/>
</svg>
