<svg width="41" height="66" viewBox="0 0 41 66" fill="none" xmlns="http://www.w3.org/2000/svg">
<path d="M1.33855 62.2662L19.9596 35.4574C20.1668 35.1547 20.5807 35.0913 20.8835 35.298L21.0429 35.4574L39.6797 62.2662V2.59716C39.6797 2.19882 39.568 1.84827 39.393 1.60938L39.3769 1.57772C39.2652 1.41827 39.1219 1.33883 38.9947 1.33883H2.00853C1.86519 1.33883 1.72186 1.43438 1.61019 1.60938L1.57853 1.64104C1.41908 1.87993 1.32352 2.21437 1.32352 2.5966L1.33963 62.2656L1.33855 62.2662ZM20.5001 37.0034L1.21055 64.7665C1.09888 64.9415 0.892212 65.0531 0.668881 65.0531C0.302775 65.0531 0 64.7503 0 64.3842V2.59609C0 1.94275 0.191116 1.35387 0.477778 0.907777L0.509444 0.859999C0.875551 0.334448 1.40166 0 2.00661 0H38.9927C39.5822 0 40.0916 0.302776 40.4583 0.796668L40.49 0.860557C40.8083 1.30666 41 1.92777 41 2.59666V64.3848C41 64.592 40.9044 64.7987 40.7133 64.9265C40.4106 65.1492 39.9967 65.0698 39.7894 64.767L20.4999 37.004L20.5001 37.0034Z" fill="black"/>
</svg>
