<svg width="70" height="70" viewBox="0 0 70 70" fill="none" xmlns="http://www.w3.org/2000/svg">
<path fill-rule="evenodd" clip-rule="evenodd" d="M31.0227 37.5633L11.5254 31.0642C9.17221 30.2798 7.99561 29.8876 7.99561 29.1668C7.99561 28.4461 9.17221 28.0539 11.5254 27.2695L54.5386 12.9318C56.1944 12.3798 57.0223 12.1039 57.4593 12.5409C57.8963 12.9779 57.6203 13.8058 57.0684 15.4616L42.7307 58.4747C41.9463 60.828 41.5541 62.0046 40.8333 62.0046C40.1126 62.0046 39.7204 60.828 38.936 58.4748L32.4369 38.9775L44.4571 26.9573C44.8476 26.5668 44.8476 25.9336 44.4571 25.5431C44.0666 25.1525 43.4334 25.1525 43.0429 25.5431L31.0227 37.5633Z" fill="#929292"/>
</svg>
