<svg width="65" height="55" viewBox="0 0 65 55" fill="none" xmlns="http://www.w3.org/2000/svg">
<path d="M15.1778 17.2067C12.1932 17.2067 9.7207 14.7977 9.7207 11.7005C9.7207 8.68906 12.1082 6.28027 15.1778 6.28027C18.1625 6.28027 20.5498 8.68921 20.5498 11.7005C20.5492 14.7971 18.1617 17.2067 15.1778 17.2067Z" fill="#C4C4C4"/>
<path d="M53.2072 31.3164V2.58116C53.2072 1.20449 52.0986 0 50.649 0L2.55818 0.000600122C1.10871 0.000600122 0 1.20504 0 2.58176V41.3829C0 42.7596 1.10866 43.964 2.55818 43.964H40.6727C41.0992 50.0727 46.2148 54.9763 52.3542 54.9763C58.8344 54.9763 64.1213 49.6424 64.1213 43.1036C64.0363 36.9091 59.2614 31.7468 53.2071 31.3171L53.2072 31.3164ZM39.0527 16.7765C38.7118 16.5185 38.1997 16.5185 37.944 16.7765L22.9371 30.886L16.0306 24.0032C15.7748 23.7451 15.2633 23.6593 14.9219 23.9174L1.7059 33.6387V2.58061C1.7059 2.15032 2.04671 1.72003 2.55882 1.72003H50.6497C51.1612 1.72003 51.5026 2.15032 51.5026 2.58061V27.7884L39.0527 16.7765ZM57.1294 42.5866C56.7886 42.9305 56.2765 42.9305 55.9357 42.5866L53.2068 39.8332V48.4366C53.2068 48.8669 52.866 49.2971 52.3539 49.2971C51.8424 49.2971 51.501 48.8669 51.501 48.4366V39.8332L48.7721 42.5866C48.6014 42.7588 48.3456 42.8447 48.1749 42.8447C47.9192 42.8447 47.7485 42.7588 47.5778 42.5866C47.237 42.2427 47.237 41.726 47.5778 41.3822L51.756 37.1664C51.8411 37.0805 51.9267 36.9941 52.0118 36.9941C52.1825 36.9083 52.4382 36.9083 52.694 36.9941C52.7791 36.9941 52.8647 37.0799 52.9498 37.1664L57.128 41.3822C57.47 41.726 57.47 42.2421 57.1292 42.5866H57.1294Z" fill="#C4C4C4"/>
</svg>
