<svg width="84" height="84" viewBox="0 0 84 84" fill="none" xmlns="http://www.w3.org/2000/svg">
<circle cx="42.3575" cy="42.2624" r="41.4343" fill="white"/>
<g clip-path="url(#clip0_119_2740)">
<path d="M41.8811 19.7197C29.1746 19.7197 18.8621 30.0323 18.8621 42.7388C18.8621 55.4453 29.1746 65.7578 41.8811 65.7578C54.5876 65.7578 64.9002 55.4453 64.9002 42.7388C64.9002 30.0323 54.5876 19.7197 41.8811 19.7197ZM30.5327 57.1947C31.5225 55.123 37.5535 53.0974 41.8811 53.0974C46.2087 53.0974 52.2627 55.123 53.2295 57.1947C50.0989 59.6808 46.1627 61.154 41.8811 61.154C37.5996 61.154 33.6633 59.6808 30.5327 57.1947ZM56.5212 53.857C53.2295 49.8517 45.2419 48.4935 41.8811 48.4935C38.5203 48.4935 30.5327 49.8517 27.241 53.857C24.8931 50.7724 23.4659 46.9282 23.4659 42.7388C23.4659 32.5874 31.7297 24.3235 41.8811 24.3235C52.0325 24.3235 60.2964 32.5874 60.2964 42.7388C60.2964 46.9282 58.8692 50.7724 56.5212 53.857ZM41.8811 28.9273C37.4154 28.9273 33.8244 32.5183 33.8244 36.984C33.8244 41.4497 37.4154 45.0407 41.8811 45.0407C46.3468 45.0407 49.9378 41.4497 49.9378 36.984C49.9378 32.5183 46.3468 28.9273 41.8811 28.9273ZM41.8811 40.4369C39.9705 40.4369 38.4283 38.8946 38.4283 36.984C38.4283 35.0734 39.9705 33.5312 41.8811 33.5312C43.7917 33.5312 45.334 35.0734 45.334 36.984C45.334 38.8946 43.7917 40.4369 41.8811 40.4369Z" fill="#323232"/>
</g>
<defs>
<clipPath id="clip0_119_2740">
<rect width="55.2457" height="55.2457" fill="white" transform="translate(14.2583 15.1162)"/>
</clipPath>
</defs>
</svg>
