<svg width="85" height="83" viewBox="0 0 85 83" fill="none" xmlns="http://www.w3.org/2000/svg">
<path fill-rule="evenodd" clip-rule="evenodd" d="M84.5256 41.5003C84.5256 41.1758 84.3421 40.9228 83.9751 40.4168C80.2206 35.2408 63.0785 13.2803 42.4992 13.2803C21.9199 13.2803 4.77793 35.2408 1.0234 40.4169L1.02339 40.4169C0.656398 40.9228 0.4729 41.1758 0.4729 41.5003C0.4729 41.8248 0.656399 42.0777 1.0234 42.5837L1.0234 42.5837C4.77794 47.7598 21.92 69.7203 42.4992 69.7203C63.0785 69.7203 80.2206 47.7598 83.9751 42.5837C84.3421 42.0777 84.5256 41.8248 84.5256 41.5003ZM42.4992 55.6102C50.2754 55.6102 56.5792 49.293 56.5792 41.5002C56.5792 33.7075 50.2754 27.3902 42.4992 27.3902C34.723 27.3902 28.4192 33.7075 28.4192 41.5002C28.4192 49.293 34.723 55.6102 42.4992 55.6102Z" fill="#929292"/>
</svg>
