<svg width="13" height="10" viewBox="0 0 13 10" fill="none" xmlns="http://www.w3.org/2000/svg">
<path d="M6.5 1.75018C8.73954 1.75018 10.7368 3.00881 11.7118 5.00018C10.7368 6.99154 8.74545 8.25018 6.5 8.25018C4.25455 8.25018 2.26318 6.99154 1.28818 5.00018C2.26318 3.00881 4.26045 1.75018 6.5 1.75018ZM6.5 0.568359C3.54545 0.568359 1.02227 2.40609 0 5.00018C1.02227 7.59427 3.54545 9.432 6.5 9.432C9.45455 9.432 11.9777 7.59427 13 5.00018C11.9777 2.40609 9.45455 0.568359 6.5 0.568359ZM6.5 3.5229C7.31545 3.5229 7.97727 4.18472 7.97727 5.00018C7.97727 5.81563 7.31545 6.47745 6.5 6.47745C5.68455 6.47745 5.02273 5.81563 5.02273 5.00018C5.02273 4.18472 5.68455 3.5229 6.5 3.5229ZM6.5 2.34109C5.03455 2.34109 3.84091 3.53472 3.84091 5.00018C3.84091 6.46563 5.03455 7.65927 6.5 7.65927C7.96545 7.65927 9.15909 6.46563 9.15909 5.00018C9.15909 3.53472 7.96545 2.34109 6.5 2.34109Z" fill="#29465B"/>
</svg>
